# xmcd
#
# Track frame offsets:
#  150
#  21444
#  43926
#  64822
#  78090
#  85468
#  107834
#  132662
#  149673
#  166759
#  183387
#  201443
#
# Disc length: 2919 seconds
#
# Revision: 0
# Processed by: cddbd v1.5.1PL2 Copyright (c) Steve Scherf et al.
# Submitted via: Collectorz.com_Music_Collector 6.11
#
DISCID=b30b650c
DTITLE=Moreland, Arbuckle and Floyd - Floyd's Market
DYEAR=2006
DGENRE=Blues
TTITLE0=Locomotive
TTITLE1=Long Past Midnight
TTITLE2=Fo'
TTITLE3=Place To Be
TTITLE4=Unsung
TTITLE5=So Low
TTITLE6=Meet Me In The City
TTITLE7=Variations On Juke
TTITLE8=Future Blues
TTITLE9=Date With The Devil
TTITLE10=Long Way Home
TTITLE11=Meltdown
EXTD=
EXTT0=
EXTT1=
EXTT2=
EXTT3=
EXTT4=
EXTT5=
EXTT6=
EXTT7=
EXTT8=
EXTT9=
EXTT10=
EXTT11=
PLAYORDER=
